<svg width="321" height="321" viewBox="0 0 321 321" fill="none" xmlns="http://www.w3.org/2000/svg">
<path d="M54.2214 61.3675C36.2202 71.7528 21.5234 97.244 21.5234 118.015V202.985C21.5234 223.756 36.2517 249.247 54.2214 259.632L127.8 302.118C145.801 312.503 175.226 312.503 193.195 302.118L266.774 259.632C284.775 249.247 299.472 223.756 299.472 202.985V118.015C299.472 97.244 284.743 71.7528 266.774 61.3675L193.195 18.8822C175.194 8.49694 145.769 8.49694 127.8 18.8822L54.2214 61.3675Z" fill="#5DC6C8"/>
<path d="M76.6641 223.85L137.843 223.661L144.137 229.766H176.772L183.664 223.661H242.608V228.791L233.765 234.959L87.9305 234.676L82.7064 231.151L76.6641 223.85Z" fill="#AEDFE1"/>
<path d="M168.715 135.354H207.046" stroke="white" stroke-width="4.72059" stroke-miterlimit="10"/>
<path d="M148.636 104.482H122.861V118.361H148.636V104.482Z" fill="#AEDFE1"/>
<path d="M234.426 233.921H86.5768L75.625 222.969V217.493H141.336L146.811 222.969H174.191L179.667 217.493H245.377V222.969L234.426 233.921Z" stroke="white" stroke-width="4.72059" stroke-linejoin="round"/>
<path d="M97.5299 107.976H94.792C90.2602 107.976 86.5781 111.658 86.5781 116.189V209.279" stroke="white" stroke-width="4.72059" stroke-miterlimit="10" stroke-linecap="round"/>
<path d="M234.427 209.279V116.189C234.427 111.658 230.745 107.976 226.214 107.976H223.476" stroke="white" stroke-width="4.72059" stroke-miterlimit="10" stroke-linecap="round"/>
<path d="M215.261 184.638H168.716L163.24 190.114H157.764L152.288 184.638H105.743V86.0405H152.288L157.764 91.5479H163.24L168.716 86.0405H215.261V184.638Z" stroke="white" stroke-width="4.72059" stroke-linecap="round" stroke-linejoin="round"/>
<path d="M160.5 93.4678V190.114" stroke="white" stroke-width="4.72059" stroke-miterlimit="10"/>
<path d="M113.955 135.354H152.286" stroke="white" stroke-width="4.72059" stroke-miterlimit="10"/>
<path d="M113.955 146.307H152.286" stroke="white" stroke-width="4.72059" stroke-miterlimit="10"/>
<path d="M113.955 157.258H152.286" stroke="white" stroke-width="4.72059" stroke-miterlimit="10"/>
<path d="M113.955 168.21H152.286" stroke="white" stroke-width="4.72059" stroke-miterlimit="10"/>
<path d="M168.715 146.307H207.046" stroke="white" stroke-width="4.72059" stroke-miterlimit="10"/>
<path d="M168.715 157.258H207.046" stroke="white" stroke-width="4.72059" stroke-miterlimit="10"/>
<path d="M168.715 168.21H207.046" stroke="white" stroke-width="4.72059" stroke-miterlimit="10"/>
<path d="M168.715 102.5H207.046" stroke="white" stroke-width="4.72059" stroke-miterlimit="10"/>
<path d="M168.715 113.451H207.046" stroke="white" stroke-width="4.72059" stroke-miterlimit="10"/>
<path d="M168.715 124.718H207.046" stroke="white" stroke-width="4.72059" stroke-miterlimit="10"/>
<path d="M149.549 102.5H116.693V124.403H149.549V102.5Z" stroke="white" stroke-width="4.72059" stroke-miterlimit="10"/>
<path d="M86.5781 201.066H130.385H190.62H234.427" stroke="white" stroke-width="4.72059" stroke-miterlimit="10"/>
</svg>
